<svg xmlns="http://www.w3.org/2000/svg" xmlns:xlink="http://www.w3.org/1999/xlink" width="500" zoomAndPan="magnify" viewBox="0 0 375 374.999991" height="500" preserveAspectRatio="xMidYMid meet" version="1.2"><defs><clipPath id="7137b496a6"><path d="M 176.570312 224.523438 L 209.570312 224.523438 L 209.570312 257.523438 L 176.570312 257.523438 Z M 176.570312 224.523438 "/></clipPath><clipPath id="12d2e82311"><path d="M 257 143 L 308.6875 143 L 308.6875 174 L 257 174 Z M 257 143 "/></clipPath><clipPath id="a2b69f465d"><path d="M 257 189 L 308.6875 189 L 308.6875 220 L 257 220 Z M 257 189 "/></clipPath><clipPath id="673a1fa7c3"><path d="M 94.9375 151 L 115 151 L 115 212 L 94.9375 212 Z M 94.9375 151 "/></clipPath><clipPath id="0e90b59ac2"><path d="M 110 109.644531 L 231 109.644531 L 231 254 L 110 254 Z M 110 109.644531 "/></clipPath></defs><g id="794c131d8e"><rect x="0" width="375" y="0" height="374.999991" style="fill:#ffffff;fill-opacity:1;stroke:none;"/><rect x="0" width="375" y="0" height="374.999991" style="fill:#ffffff;fill-opacity:1;stroke:none;"/><g clip-rule="nonzero" clip-path="url(#7137b496a6)"><path style=" stroke:none;fill-rule:nonzero;fill:#ffffff;fill-opacity:1;" d="M 209.570312 241.03125 C 193.324219 241.164062 193.210938 241.28125 193.074219 257.523438 C 192.925781 241.28125 192.8125 241.164062 176.570312 241.03125 C 192.8125 240.882812 192.925781 240.769531 193.074219 224.523438 C 193.210938 240.769531 193.324219 240.882812 209.570312 241.03125 Z M 209.570312 241.03125 "/></g><path style=" stroke:none;fill-rule:nonzero;fill:#202831;fill-opacity:1;" d="M 145.382812 251.226562 C 146.894531 255.855469 144.371094 260.832031 139.753906 262.34375 L 134.648438 264.015625 C 130.03125 265.527344 125.0625 263 123.550781 258.378906 L 107.867188 210.320312 C 106.355469 205.695312 108.875 200.71875 113.492188 199.207031 L 118.601562 197.535156 C 123.21875 196.023438 128.1875 198.546875 129.699219 203.171875 L 145.382812 251.226562 "/><g clip-rule="nonzero" clip-path="url(#12d2e82311)"><path style=" stroke:none;fill-rule:nonzero;fill:#bdbcbc;fill-opacity:1;" d="M 307.652344 146.1875 C 308.695312 148.253906 307.871094 150.78125 305.808594 151.828125 L 263.503906 173.292969 C 261.4375 174.339844 258.917969 173.511719 257.871094 171.445312 C 256.824219 169.378906 257.652344 166.851562 259.714844 165.804688 L 302.019531 144.339844 C 304.085938 143.292969 306.605469 144.117188 307.652344 146.1875 "/></g><g clip-rule="nonzero" clip-path="url(#a2b69f465d)"><path style=" stroke:none;fill-rule:nonzero;fill:#bdbcbc;fill-opacity:1;" d="M 257.871094 191.996094 C 256.824219 194.0625 257.652344 196.585938 259.714844 197.632812 L 302.019531 219.101562 C 304.085938 220.148438 306.605469 219.320312 307.652344 217.253906 C 308.695312 215.1875 307.871094 212.660156 305.804688 211.613281 L 263.503906 190.148438 C 261.4375 189.101562 258.917969 189.929688 257.871094 191.996094 "/></g><path style=" stroke:none;fill-rule:nonzero;fill:#bdbcbc;fill-opacity:1;" d="M 283.574219 112.90625 C 285.207031 114.546875 285.207031 117.203125 283.574219 118.84375 L 250.039062 152.425781 C 248.402344 154.0625 245.75 154.0625 244.113281 152.425781 C 242.476562 150.785156 242.476562 148.128906 244.113281 146.492188 L 277.644531 112.90625 C 279.285156 111.265625 281.9375 111.265625 283.574219 112.90625 "/><path style=" stroke:none;fill-rule:nonzero;fill:#bdbcbc;fill-opacity:1;" d="M 244.113281 211.015625 C 242.476562 212.652344 242.476562 215.3125 244.113281 216.949219 L 277.644531 250.535156 C 279.285156 252.175781 281.9375 252.175781 283.574219 250.535156 C 285.210938 248.894531 285.210938 246.238281 283.574219 244.597656 L 250.039062 211.015625 C 248.402344 209.375 245.75 209.375 244.113281 211.015625 "/><path style=" stroke:none;fill-rule:nonzero;fill:#202831;fill-opacity:1;" d="M 249.972656 180.714844 C 249.972656 197.839844 236.105469 211.726562 219.003906 211.726562 C 201.902344 211.726562 188.035156 197.839844 188.035156 180.714844 C 188.035156 163.582031 201.902344 149.699219 219.003906 149.699219 C 236.105469 149.699219 249.972656 163.582031 249.972656 180.714844 "/><g clip-rule="nonzero" clip-path="url(#673a1fa7c3)"><path style=" stroke:none;fill-rule:nonzero;fill:#202831;fill-opacity:1;" d="M 114.207031 151.714844 L 103.761719 151.714844 C 98.902344 151.714844 94.960938 155.660156 94.960938 160.527344 L 94.960938 202.914062 C 94.960938 207.78125 98.902344 211.726562 103.761719 211.726562 L 114.207031 211.726562 L 114.207031 151.714844 "/></g><g clip-rule="nonzero" clip-path="url(#0e90b59ac2)"><path style=" stroke:none;fill-rule:nonzero;fill:#cb2a28;fill-opacity:1;" d="M 230.726562 109.714844 L 173.699219 148.765625 L 119.28125 148.765625 C 114.421875 148.765625 110.480469 152.714844 110.480469 157.578125 L 110.480469 205.859375 C 110.480469 210.726562 114.421875 214.671875 119.28125 214.671875 L 173.699219 214.671875 L 230.726562 253.722656 L 230.726562 109.714844 "/></g><path style=" stroke:none;fill-rule:nonzero;fill:#d63a31;fill-opacity:1;" d="M 230.726562 120.992188 L 173.699219 164.539062 L 119.28125 164.539062 C 114.421875 164.539062 110.480469 165.78125 110.480469 167.308594 L 110.480469 182.457031 C 110.480469 183.980469 114.421875 185.21875 119.28125 185.21875 L 173.699219 185.21875 L 230.726562 166.175781 L 230.726562 120.992188 "/><path style=" stroke:none;fill-rule:nonzero;fill:#fbc25a;fill-opacity:1;" d="M 214.160156 121.058594 L 206.710938 126.160156 L 206.710938 237.277344 L 214.160156 242.378906 L 214.160156 121.058594 "/></g></svg>